<?xml version="1.0" encoding="utf-8"?>
<!-- Generator: Adobe Illustrator 27.7.0, SVG Export Plug-In . SVG Version: 6.00 Build 0)  -->
<svg version="1.1" id="Layer_2_00000112626422294737325070000007926294110801733794_"
	 xmlns="http://www.w3.org/2000/svg" xmlns:xlink="http://www.w3.org/1999/xlink" x="0px" y="0px" viewBox="0 0 185.6 157.2"
	 style="enable-background:new 0 0 185.6 157.2;" xml:space="preserve">
<style type="text/css">
	.st0{fill:#FFFFFF;}
	.st1{fill:#A8CD37;}
</style>
<g id="design">
	<path class="st0" d="M182,65.1c-1.5-4.3-3.7-8.4-6.5-12.2c-1.9-2.5-4.1-4.9-6.6-7.1c-2.5-2.2-5.4-4.3-8.4-6L92.8,1.2L25.1,39.8
		c-3,1.8-5.8,3.8-8.4,6C6.9,54.6,1.4,66.2,1.4,78.6s5.4,24,15.4,32.8c2.5,2.2,5.4,4.3,8.4,6L92.8,156l67.7-38.6c3-1.8,5.8-3.8,8.4-6
		c2.5-2.2,4.7-4.6,6.6-7.1c2.9-3.8,5.1-7.9,6.5-12.2s2.2-8.9,2.2-13.5S183.5,69.4,182,65.1L182,65.1z"/>
	<path class="st1" d="M183.4,64.9c1.5,4.4,2.3,9,2.3,13.7s-0.8,9.3-2.3,13.7s-3.7,8.6-6.6,12.4c-1.9,2.6-4.2,5-6.7,7.2
		c-2.6,2.3-5.4,4.3-8.5,6.1l-68.7,39.2L24.1,118c-3.1-1.8-5.9-3.8-8.5-6.1C5.5,103,0,91.2,0,78.6s5.5-24.4,15.6-33.3
		c2.6-2.3,5.4-4.3,8.5-6.1L92.8,0l68.7,39.2c3.1,1.8,5.9,3.8,8.5,6.1c2.5,2.2,4.8,4.6,6.7,7.2C179.6,56.3,181.9,60.5,183.4,64.9z
		 M181.1,78.6c0-11.6-5.1-22.4-14.3-30.6c-2.4-2.1-5-4-7.8-5.6L92.8,4.6L27.2,42l-0.6,0.4c-2.8,1.6-5.4,3.5-7.8,5.6
		C9.6,56.2,4.5,67,4.5,78.6s5.1,22.4,14.3,30.6c2.4,2.1,5,4,7.8,5.6l66.2,37.8l65.6-37.4l0.6-0.4c2.8-1.6,5.4-3.5,7.8-5.6
		C176,101,181.1,90.2,181.1,78.6z"/>
	<path class="st1" d="M108.2,126.7v1.1c0,0.1,0,0.2-0.1,0.3c-0.1,0.1-0.2,0.1-0.3,0.1c-0.3,0-0.4-0.2-0.4-0.5v-1
		c0-0.3,0.1-0.5,0.4-0.5S108.2,126.4,108.2,126.7z"/>
	<path class="st1" d="M103.8,127v2.9c0,0.3,0,0.5-0.1,0.6s-0.2,0.2-0.3,0.2s-0.2-0.1-0.3-0.2c-0.1-0.1-0.1-0.3-0.1-0.6V127
		c0-0.3,0-0.5,0.1-0.6c0.1-0.1,0.2-0.2,0.3-0.2s0.3,0.1,0.3,0.2S103.8,126.7,103.8,127L103.8,127z"/>
	<path class="st1" d="M99.4,127v2.9c0,0.3,0,0.5-0.1,0.6s-0.2,0.2-0.3,0.2s-0.2-0.1-0.3-0.2c-0.1-0.1-0.1-0.3-0.1-0.6V127
		c0-0.3,0-0.5,0.1-0.6c0.1-0.1,0.2-0.2,0.3-0.2s0.3,0.1,0.3,0.2S99.4,126.7,99.4,127L99.4,127z"/>
	<path class="st1" d="M106.3,127.8c0,0.4,0.1,0.8,0.3,1c0.2,0.2,0.5,0.4,0.8,0.4c0.1,0,0.3,0,0.3-0.1l-1.1,2.4h1.2l1.1-2.5
		c0.1-0.2,0.2-0.5,0.2-0.7c0-0.2,0.1-0.4,0.1-0.7v-0.9c0-0.5-0.1-0.9-0.4-1.1s-0.6-0.4-1.1-0.4s-0.8,0.1-1.1,0.4s-0.4,0.6-0.4,1.1
		L106.3,127.8L106.3,127.8z M84.7,126.3h1.1v5.2h1.1v-5.2h1.1v-1h-3.3L84.7,126.3L84.7,126.3z M101.9,129.9c0,0.6,0.1,1,0.4,1.3
		s0.6,0.4,1.1,0.4s0.9-0.1,1.1-0.4s0.4-0.7,0.4-1.3V127c0-0.6-0.1-1-0.4-1.3c-0.2-0.3-0.6-0.4-1.1-0.4s-0.9,0.1-1.1,0.4
		c-0.2,0.3-0.4,0.7-0.4,1.3V129.9z M79.1,126.3v-1h-2.8v6.2h2.8v-1h-1.7v-1.7h1.4v-1h-1.4v-1.6L79.1,126.3L79.1,126.3z M80.2,129.8
		c0,0.6,0.2,1.1,0.4,1.4c0.3,0.3,0.7,0.5,1.3,0.5s1-0.1,1.3-0.5c0.3-0.3,0.4-0.8,0.4-1.3c0-0.5-0.1-0.9-0.3-1.2
		c-0.2-0.3-0.5-0.5-0.9-0.7l-0.4-0.2c-0.2-0.1-0.4-0.2-0.5-0.3s-0.2-0.3-0.2-0.5c0-0.5,0.2-0.7,0.6-0.7c0.2,0,0.4,0.1,0.5,0.2
		c0.1,0.1,0.1,0.4,0.2,0.6h1c0-0.6-0.2-1-0.4-1.3s-0.7-0.5-1.2-0.5s-0.9,0.2-1.2,0.5c-0.3,0.3-0.5,0.7-0.5,1.3
		c0,0.4,0.1,0.8,0.3,1.1c0.2,0.3,0.5,0.5,0.9,0.7l0.4,0.2c0.3,0.1,0.5,0.2,0.6,0.4c0.1,0.1,0.2,0.3,0.2,0.6c0,0.3-0.1,0.5-0.2,0.6
		s-0.3,0.2-0.5,0.2s-0.4-0.1-0.5-0.2c-0.1-0.1-0.2-0.4-0.2-0.7L80.2,129.8L80.2,129.8z M96.1,127.1v-0.4c0-0.4-0.1-0.8-0.4-1.1
		s-0.6-0.4-1.1-0.4s-0.8,0.1-1.1,0.4c-0.3,0.3-0.4,0.6-0.4,1v0.6h1.1v-0.4c0-0.4,0.1-0.5,0.4-0.5s0.4,0.2,0.4,0.5v0.3
		c0,0.2,0,0.4-0.1,0.5s-0.1,0.3-0.2,0.5l-1.6,2.6v1h3v-1h-1.7l1.3-2.1c0.2-0.3,0.3-0.5,0.3-0.7C96.1,127.6,96.1,127.4,96.1,127.1
		L96.1,127.1z M97.5,129.9c0,0.6,0.1,1,0.4,1.3s0.6,0.4,1.1,0.4s0.9-0.1,1.1-0.4s0.4-0.7,0.4-1.3V127c0-0.6-0.1-1-0.4-1.3
		c-0.2-0.3-0.6-0.4-1.1-0.4s-0.9,0.1-1.1,0.4c-0.2,0.3-0.4,0.7-0.4,1.3V129.9z M165.3,49.7c8.7,7.7,13.5,18,13.5,28.9
		s-4.8,21.1-13.5,28.9c-2.2,2-4.7,3.8-7.4,5.3l-65.1,37.1l-64.4-36.8l-0.6-0.3c-2.7-1.6-5.2-3.3-7.4-5.3c-8.7-7.7-13.5-18-13.5-28.9
		s4.8-21.1,13.5-28.9c2.2-2,4.8-3.8,7.4-5.3l65-37.1l64.4,36.8l0.6,0.3C160.5,46,163,47.8,165.3,49.7L165.3,49.7z M138.9,67.7
		l7.7-15.7h-5.5l-7.2,15.4V52h-5.5v35.2h5.5V76.5l1.7-3.2l5.4,14h5.7L138.9,67.7z M139.2,108v-11h-2v6.1l-2.3-6.1h-2v11h2v-5.9
		l2.3,5.9H139.2z M130.7,108v-1.8h-3v-3h2.5v-1.8h-2.6v-2.8h3v-1.8h-4.9v11H130.7z M123.2,108v-11h-2v4.5h-2.1v-4.5h-2v11h2v-4.7
		h2.1v4.7H123.2z M115.1,61.6v-1.1c0-2.8-0.7-5-2.1-6.6s-3.3-2.3-5.9-2.3s-4.6,0.8-6.1,2.3s-2.2,3.7-2.2,6.6c0,1.8,0.4,3.5,1.2,5.1
		c0.8,1.5,1.8,2.8,2.9,3.8l2.8,2.9c1.1,1,2,2,2.7,3.2c0.8,1.2,1.1,2.4,1.1,3.7c0,2.3-0.9,3.4-2.6,3.4h0c-1.8,0-2.7-1.2-2.7-3.4v-2.5
		h-5.7v2.2c0,2.8,0.8,5,2.3,6.6c1.5,1.5,3.6,2.3,6.1,2.3s4.6-0.8,6-2.3s2.1-3.7,2.1-6.6c0-1.4-0.2-2.7-0.6-3.8
		c-0.4-1.2-0.9-2.2-1.6-3c-0.6-0.9-1.3-1.7-2.1-2.4s-1.5-1.5-2.3-2.2c-0.8-0.7-1.5-1.4-2.1-2.1s-1.2-1.5-1.6-2.4
		c-0.4-0.9-0.6-1.8-0.6-2.8c0-2.3,0.9-3.5,2.8-3.5s2.8,1.2,2.8,3.5v1.5L115.1,61.6L115.1,61.6z M114.6,100.4v-0.3
		c0-1.1-0.3-1.9-0.8-2.4s-1.3-0.8-2.2-0.8s-1.7,0.3-2.3,0.8c-0.6,0.5-0.9,1.3-0.9,2.4v4.9c0,1,0.3,1.8,0.8,2.3
		c0.6,0.5,1.3,0.8,2.2,0.8s1.7-0.3,2.3-0.8c0.6-0.5,0.9-1.3,0.9-2.4v-0.3h-1.9v0.3c0,0.5-0.1,0.8-0.3,1.1c-0.2,0.2-0.5,0.4-0.8,0.4
		c-0.8,0-1.2-0.5-1.2-1.6v-4.4c0-0.6,0.1-1,0.3-1.3c0.2-0.3,0.5-0.4,0.9-0.4c0.3,0,0.6,0.1,0.8,0.4c0.2,0.2,0.3,0.6,0.3,1.1v0.3
		C112.7,100.4,114.6,100.4,114.6,100.4z M106.4,98.8v-1.8h-5.8v1.8h1.9v9.2h1.9v-9.2H106.4L106.4,98.8z M98.6,108v-11h-1.9v11H98.6z
		 M94.6,108l-2.6-6.5l2.3-4.5h-2l-2.3,5.2v-5.2H88v11h1.9v-2.5l0.9-1.8l1.7,4.2H94.6z M89.6,131.6v-1.2h-1.1v1.2H89.6z M87.2,87.3
		L81.6,52h-8.5l-5.6,35.2H73l0.9-6.1h6.8l0.9,6.1H87.2L87.2,87.3z M80.2,105.5l1.1-1.8l-1.3-0.9l-0.7,1.2l-1-1.6
		c0.6-0.6,1-1.2,1.2-1.7c0.2-0.5,0.4-1,0.4-1.4c0-0.7-0.2-1.3-0.7-1.8c-0.5-0.4-1-0.7-1.8-0.7s-1.3,0.2-1.8,0.7s-0.7,1-0.7,1.8
		c0,0.4,0.1,0.8,0.3,1.2s0.5,1,0.9,1.6c-0.6,0.7-1.1,1.3-1.4,1.8c-0.3,0.5-0.4,1.1-0.4,1.6c0,0.8,0.2,1.4,0.7,1.9s1.1,0.7,1.8,0.7
		c0.5,0,0.9-0.1,1.3-0.2s0.7-0.4,1-0.8c0.2,0.3,0.4,0.6,0.6,0.7c0.2,0.1,0.5,0.2,0.8,0.2h0.8v-1.6h-0.2c-0.2,0-0.3,0-0.4-0.1
		c-0.1-0.1-0.2-0.2-0.3-0.3L80.2,105.5L80.2,105.5z M67.5,101.4c0.2-0.4,0.3-0.8,0.3-1.4c0-1-0.2-1.8-0.7-2.2
		c-0.5-0.5-1.2-0.7-2.3-0.7h-3v11h3c1.1,0,1.9-0.2,2.3-0.8s0.7-1.3,0.7-2.4c0-0.7-0.1-1.2-0.2-1.6c-0.2-0.4-0.5-0.7-1-0.9
		C67,102.1,67.3,101.8,67.5,101.4z M59.2,105.2v-8.1h-2v8.1c0,0.9-0.3,1.3-1,1.3c-0.3,0-0.6-0.1-0.8-0.3s-0.2-0.5-0.2-1v-8.1h-2v8.1
		c0,0.6,0.1,1.1,0.4,1.6s0.6,0.8,1.1,1.1s1,0.4,1.5,0.4s1.1-0.1,1.5-0.4c0.5-0.2,0.8-0.6,1.1-1.1C59.1,106.3,59.2,105.8,59.2,105.2z
		 M55.8,78.8v-4.7h-5.5v5.1c0,2.3-0.9,3.4-2.9,3.4s-2.9-1.1-2.9-3.4v-19c0-2.3,1-3.5,2.9-3.5s2.9,1.2,2.9,3.5v3.8h5.5v-3.4
		c0-2.8-0.8-5-2.2-6.6c-1.5-1.5-3.6-2.3-6.3-2.3s-4.8,0.8-6.2,2.3S39,57.6,39,60.5v18.3c0,2.8,0.7,5,2.1,6.6
		c1.4,1.5,3.5,2.3,6.2,2.3s4.8-0.8,6.3-2.3C55,83.8,55.8,81.7,55.8,78.8L55.8,78.8z M51,100.5c0-1.2-0.2-2-0.7-2.6
		c-0.5-0.6-1.2-0.9-2.3-0.9h-3v11h2V104h1c1.1,0,1.8-0.3,2.3-0.9C50.8,102.6,51,101.7,51,100.5L51,100.5z"/>
	<polygon class="st1" points="77.4,58.4 80,76.1 74.7,76.1 	"/>
	<path class="st1" d="M77.1,103.7l1.2,2c-0.2,0.3-0.4,0.5-0.6,0.6c-0.2,0.1-0.4,0.2-0.6,0.2c-0.3,0-0.5-0.1-0.6-0.3
		c-0.2-0.2-0.2-0.4-0.2-0.8c0-0.3,0.1-0.6,0.2-0.8C76.6,104.3,76.8,104,77.1,103.7L77.1,103.7z"/>
	<path class="st1" d="M78,98.6c0.1,0.2,0.2,0.4,0.2,0.7s-0.1,0.6-0.2,0.8s-0.3,0.5-0.6,0.9c-0.2-0.4-0.4-0.8-0.5-1
		c-0.1-0.2-0.1-0.5-0.1-0.7c0-0.3,0.1-0.5,0.2-0.6s0.3-0.2,0.5-0.2S77.9,98.4,78,98.6L78,98.6z"/>
	<path class="st1" d="M65.9,104.7c0,0.6-0.1,1-0.3,1.2s-0.5,0.4-1,0.4h-0.8v-3.1h0.8c0.5,0,0.8,0.1,1,0.4
		C65.8,103.8,65.9,104.2,65.9,104.7L65.9,104.7z"/>
	<path class="st1" d="M65.6,99.1c0.2,0.2,0.3,0.5,0.3,1s-0.1,0.8-0.3,1s-0.5,0.3-1,0.3h-0.8v-2.7h0.8C65.1,98.8,65.4,98.9,65.6,99.1
		L65.6,99.1z"/>
	<path class="st1" d="M48.8,99.2c0.2,0.3,0.2,0.7,0.2,1.3s-0.1,1-0.2,1.3c-0.2,0.3-0.5,0.4-0.9,0.4h-1v-3.4h1
		C48.4,98.8,48.7,98.9,48.8,99.2L48.8,99.2z"/>
</g>
</svg>
