<?xml version="1.0" encoding="utf-8"?>
<!-- Generator: Adobe Illustrator 21.1.0, SVG Export Plug-In . SVG Version: 6.00 Build 0)  -->
<!DOCTYPE svg PUBLIC "-//W3C//DTD SVG 1.1//EN" "http://www.w3.org/Graphics/SVG/1.1/DTD/svg11.dtd">
<svg version="1.1" id="Layer_1" xmlns="http://www.w3.org/2000/svg" xmlns:xlink="http://www.w3.org/1999/xlink" x="0px" y="0px"
	 width="200px" height="82px" viewBox="0 0 200 82" style="enable-background:new 0 0 200 82;" xml:space="preserve">
<path id="XMLID_34_" d="M36.5,10.6c-2.3,2.8-6.1,5-9.8,4.6c-0.5-3.7,1.4-7.7,3.5-10.2c2.3-2.8,6.4-4.9,9.8-5
	C40.4,4,38.8,7.8,36.5,10.6 M39.9,16c-5.4-0.3-10.1,3.1-12.7,3.1c-2.6,0-6.6-2.9-10.9-2.8c-5.6,0.1-10.8,3.2-13.6,8.3
	c-5.9,10.1-1.5,25,4.1,33.2c2.8,4.1,6.1,8.5,10.5,8.3c4.1-0.2,5.8-2.7,10.8-2.7c5,0,6.5,2.7,10.9,2.6c4.5-0.1,7.4-4.1,10.2-8.1
	c3.2-4.6,4.5-9.1,4.5-9.3c-0.1-0.1-8.8-3.4-8.8-13.4c-0.1-8.3,6.8-12.3,7.1-12.6C48.1,16.8,42.1,16.2,39.9,16 M71.3,4.7v60.8h9.5
	V44.7h13.1c12,0,20.4-8.2,20.4-20.1s-8.2-20-20-20L71.3,4.7L71.3,4.7z M80.8,12.7h10.9c8.2,0,12.9,4.4,12.9,12.1
	s-4.7,12.1-12.9,12.1H80.8V12.7z M131.5,66c5.9,0,11.4-3,13.9-7.8h0.2v7.3h8.8V35.2c0-8.8-7-14.4-17.9-14.4
	c-10,0-17.5,5.7-17.7,13.6h8.5c0.7-3.7,4.2-6.2,8.9-6.2c5.8,0,9,2.7,9,7.6v3.4l-11.8,0.7c-11,0.7-16.9,5.1-16.9,13
	C116.6,60.8,122.7,66,131.5,66z M134,58.8c-5,0-8.2-2.4-8.2-6.1c0-3.8,3.1-6,9-6.4l10.5-0.7V49C145.3,54.7,140.4,58.8,134,58.8z
	 M166.1,82.1c9.2,0,13.6-3.5,17.3-14.2L200,21.4h-9.6l-11.1,35.9h-0.2l-11.1-35.9H158l16,44.3l-0.9,2.7c-1.4,4.6-3.8,6.3-8,6.3
	c-0.7,0-2.2-0.1-2.8-0.2v7.3C163,82,165.3,82.1,166.1,82.1z"/>
</svg>
